<svg version="1.1" id="Layer_1" xmlns="http://www.w3.org/2000/svg" x="0" y="0" viewBox="0 0 2007.9 297.9" xml:space="preserve"><style>.st0{fill:#fac038}</style><path class="st0" d="M149 259l-31.4 38.9H31.1L0 258.2V39.3L30.7 0h87.9L149 38.5v53.8H87.2V63.7H61.8v169.7h25.4v-55.9H71.4v-65.4H149V259zM300.9 71.6h-66.4v38.9h54.2v71.6h-54.2v41.4h65.8V298H172.4V0h128.5v71.6zM452.8 71.6h-66.4v38.9h54.2v71.6h-54.2v41.4h65.8V298h-128V0h128.5v71.6zM645.9 297.9h-70.4l-37.3-109.7v109.7h-62.1V0h62.1v99.3L566.7 0h69l-52.2 135.7 62.4 162.2zM816.3 258.6l-31.4 39.3H701l-31.7-40.1V39.3L700.8 0h83.7l31.9 39.3v67.9h-62.1v-41h-23.1v165.5h23.1v-60h62.1v86.9zM986.4 259l-31.1 38.9h-84.6L839.6 259V39.3L870.7 0h84.6l31.1 39.3V259zm-62.2-27.3V66.2h-22.8v165.5h22.8zM1182.8 297.9H1116l-4.3-48.8h-31.1l-4.3 48.8h-66.8L1049.3 0h93.8l39.7 297.9zm-73-116.7l-9.9-103h-7.3l-9.9 103h27.1zM1353.9 87.3h-62.5V63.7h-22.8v40.6l85.3 38.9v115.4l-31.1 39.3h-84.6l-32.1-40.6V197h62.5v35.6h22.8v-50.5l-85.3-38.5V39.7L1236.8 0h86.4l30.7 37.7v49.6zM1516.3 72.8H1476v225.1h-61.8V72.8h-40V0h142.1v72.8zM1664.9 71.6h-66.4v38.9h54.2v71.6h-54.2v41.4h65.8V298h-127.9V0h128.5v71.6zM1836.6 113l-25.1 32.7 25.1 31v121.2h-61.8v-120h-24.5v120h-62.1V0h117.1l31.3 39.3V113zm-61.8 1.2V62.5h-24.5v51.7h24.5zM2007.9 87.3h-62.5V63.7h-22.8v40.6l85.3 38.9v115.4l-31.1 39.3h-84.6l-32.1-40.6V197h62.5v35.6h22.8v-50.5l-85.3-38.5V39.7L1890.9 0h86.4l30.7 37.7v49.6z"/></svg>