<?xml version="1.0" encoding="utf-8"?>
<!-- Generator: Adobe Illustrator 19.0.0, SVG Export Plug-In . SVG Version: 6.00 Build 0)  -->
<svg version="1.1" id="Layer_1" xmlns="http://www.w3.org/2000/svg" xmlns:xlink="http://www.w3.org/1999/xlink" x="0px" y="0px"
	 viewBox="0 0 1441.3 431.4" style="enable-background:new 0 0 1441.3 431.4;" xml:space="preserve">
<style type="text/css">
	.st0{fill:url(#XMLID_28_);}
	.st1{fill:url(#XMLID_29_);}
	.st2{fill:url(#XMLID_30_);}
	.st3{fill:url(#XMLID_31_);}
	.st4{fill:url(#XMLID_32_);}
	.st5{fill:url(#XMLID_33_);}
	.st6{fill:url(#XMLID_34_);}
	.st7{fill:url(#XMLID_35_);}
	.st8{fill:url(#XMLID_36_);}
	.st9{fill:url(#XMLID_37_);}
	.st10{fill:url(#XMLID_38_);}
	.st11{fill:url(#XMLID_39_);}
	.st12{fill:url(#XMLID_40_);}
	.st13{fill:url(#XMLID_41_);}
</style>
<linearGradient id="XMLID_28_" gradientUnits="userSpaceOnUse" x1="0" y1="215.7232" x2="1441.3334" y2="215.7232">
	<stop  offset="0" style="stop-color:#323D96"/>
	<stop  offset="6.018758e-003" style="stop-color:#323C95"/>
	<stop  offset="0.322" style="stop-color:#2D3372"/>
	<stop  offset="0.6042" style="stop-color:#272C5C"/>
	<stop  offset="0.8399" style="stop-color:#22274E"/>
	<stop  offset="1" style="stop-color:#20254A"/>
</linearGradient>
<rect id="XMLID_472_" class="st0" width="1441.3" height="431.4"/>
<g id="XMLID_1011_">
	
		<image style="overflow:visible;opacity:0.91;" width="5670" height="1536" id="XMLID_426_" xlink:href="87ABCBF3.png"  transform="matrix(0.24 0 0 0.24 57.3596 42.8098)">
	</image>
	<g id="XMLID_258_">
		<g id="XMLID_370_">
			<linearGradient id="XMLID_29_" gradientUnits="userSpaceOnUse" x1="3.2165" y1="234.8333" x2="386.7523" y2="178.0857">
				<stop  offset="0" style="stop-color:#F9B816"/>
				<stop  offset="1" style="stop-color:#FBD307"/>
			</linearGradient>
			<path id="XMLID_396_" class="st1" d="M182.3,320.4l-20.9,37h-57.8l-20.7-37.8V111.4L103.4,74H162l20.3,36.6v51.2h-41.2v-27.2h-17
				V296h17v-53.1h-10.6v-62.2h51.8V320.4z"/>
			<linearGradient id="XMLID_30_" gradientUnits="userSpaceOnUse" x1="4.1387" y1="249.8347" x2="388.6666" y2="192.9403">
				<stop  offset="0" style="stop-color:#F9B816"/>
				<stop  offset="1" style="stop-color:#FBD307"/>
			</linearGradient>
			<path id="XMLID_394_" class="st2" d="M277.8,142.1h-44.3v37h36.2v68.1h-36.2v39.4h43.9v70.9H192V74h85.8V142.1z"/>
			<linearGradient id="XMLID_31_" gradientUnits="userSpaceOnUse" x1="5.3132" y1="263.7874" x2="389.8412" y2="206.893">
				<stop  offset="0" style="stop-color:#F9B816"/>
				<stop  offset="1" style="stop-color:#FBD307"/>
			</linearGradient>
			<path id="XMLID_392_" class="st3" d="M373.3,142.1h-44.3v37h36.2v68.1h-36.2v39.4h43.9v70.9h-85.3V74h85.8V142.1z"/>
			<linearGradient id="XMLID_32_" gradientUnits="userSpaceOnUse" x1="7.2516" y1="279.6988" x2="391.2797" y2="222.8783">
				<stop  offset="0" style="stop-color:#F9B816"/>
				<stop  offset="1" style="stop-color:#FBD307"/>
			</linearGradient>
			<path id="XMLID_390_" class="st4" d="M496.3,357.5h-47l-24.9-104.3v104.3H383V74h41.5v94.5l19-94.5h46l-34.8,129.1L496.3,357.5z"
				/>
			<linearGradient id="XMLID_33_" gradientUnits="userSpaceOnUse" x1="503.128" y1="226.1714" x2="1491.5785" y2="26.6814">
				<stop  offset="0" style="stop-color:#F9B816"/>
				<stop  offset="1" style="stop-color:#FBD307"/>
			</linearGradient>
			<path id="XMLID_388_" class="st5" d="M603.7,320.1l-20.9,37.4h-55.8L506,319.3V111.4L527,74h55.6l21.2,37.4V176h-41.2v-39h-15.2
				v157.5h15.2v-57.1h41.2V320.1z"/>
			<linearGradient id="XMLID_34_" gradientUnits="userSpaceOnUse" x1="507.3504" y1="247.0933" x2="1495.801" y2="47.6032">
				<stop  offset="0" style="stop-color:#F9B816"/>
				<stop  offset="1" style="stop-color:#FBD307"/>
			</linearGradient>
			<path id="XMLID_385_" class="st6" d="M711.7,320.4l-20.7,37h-56.4l-20.7-37V111.4L634.6,74H691l20.7,37.4V320.4z M670.3,294.5
				V137h-15.2v157.5H670.3z"/>
			<linearGradient id="XMLID_35_" gradientUnits="userSpaceOnUse" x1="512.4247" y1="272.236" x2="1500.8754" y2="72.7459">
				<stop  offset="0" style="stop-color:#F9B816"/>
				<stop  offset="1" style="stop-color:#FBD307"/>
			</linearGradient>
			<path id="XMLID_382_" class="st7" d="M837,357.5h-44.5l-2.9-46.5h-20.7l-2.9,46.5h-44.5L747.9,74h62.6L837,357.5z M788.2,246.4
				l-6.6-98h-4.9l-6.6,98H788.2z"/>
			<linearGradient id="XMLID_36_" gradientUnits="userSpaceOnUse" x1="516.4756" y1="292.3076" x2="1504.9261" y2="92.8175">
				<stop  offset="0" style="stop-color:#F9B816"/>
				<stop  offset="1" style="stop-color:#FBD307"/>
			</linearGradient>
			<path id="XMLID_380_" class="st8" d="M945.5,157.1H904v-22.4h-15.7v38.6l57.1,37v109.8l-20.8,37.4h-56.6l-21.4-38.6v-57.5h41.7
				v33.9H904v-47.8l-57.3-36.7v-98.9L867.2,74H925l20.5,35.8V157.1z"/>
			<linearGradient id="XMLID_37_" gradientUnits="userSpaceOnUse" x1="520.0363" y1="309.9502" x2="1508.4868" y2="110.4602">
				<stop  offset="0" style="stop-color:#F9B816"/>
				<stop  offset="1" style="stop-color:#FBD307"/>
			</linearGradient>
			<path id="XMLID_378_" class="st9" d="M1047.8,143.3h-26.9v214.2h-41.2V143.3H953V74h94.8V143.3z"/>
			<linearGradient id="XMLID_38_" gradientUnits="userSpaceOnUse" x1="524.3814" y1="331.48" x2="1512.832" y2="131.99">
				<stop  offset="0" style="stop-color:#F9B816"/>
				<stop  offset="1" style="stop-color:#FBD307"/>
			</linearGradient>
			<path id="XMLID_376_" class="st10" d="M1141.1,142.1h-44.3v37h36.2v68.1h-36.2v39.4h43.9v70.9h-85.3V74h85.8V142.1z"/>
			<linearGradient id="XMLID_39_" gradientUnits="userSpaceOnUse" x1="528.3856" y1="351.3205" x2="1516.8362" y2="151.8304">
				<stop  offset="0" style="stop-color:#F9B816"/>
				<stop  offset="1" style="stop-color:#FBD307"/>
			</linearGradient>
			<path id="XMLID_373_" class="st11" d="M1249.8,181.5l-16.8,31.1l16.8,29.5v115.4h-41.2V243.3h-16.3v114.2h-41.5V74h78.1
				l20.9,37.4V181.5z M1208.5,182.7v-49.2h-16.3v49.2H1208.5z"/>
			<linearGradient id="XMLID_40_" gradientUnits="userSpaceOnUse" x1="532.6392" y1="372.3962" x2="1521.0897" y2="172.9062">
				<stop  offset="0" style="stop-color:#F9B816"/>
				<stop  offset="1" style="stop-color:#FBD307"/>
			</linearGradient>
			<path id="XMLID_371_" class="st12" d="M1358.5,157.1H1317v-22.4h-15.7v38.6l57.1,37v109.8l-20.8,37.4h-56.6l-21.4-38.6v-57.5
				h41.7v33.9h15.7v-47.8l-57.3-36.7v-98.9l20.5-37.8h57.8l20.5,35.8V157.1z"/>
		</g>
	</g>
</g>
<g id="XMLID_656_">
	<g id="XMLID_666_">
		<linearGradient id="XMLID_41_" gradientUnits="userSpaceOnUse" x1="21.3229" y1="215.7233" x2="1420.0105" y2="215.7233">
			<stop  offset="0" style="stop-color:#F9B816"/>
			<stop  offset="1" style="stop-color:#FBD307"/>
		</linearGradient>
		<path id="XMLID_667_" class="st13" d="M1412,35.5v360.4H29.3V35.5H1412 M1420,27.5h-8H29.3h-8v8v360.4v8h8H1412h8v-8V35.5V27.5
			L1420,27.5z"/>
	</g>
</g>
</svg>
